<svg version="1.1" viewBox="0.0 0.0 540.4803149606299 540.0" fill="none" stroke="none" stroke-linecap="square" stroke-miterlimit="10" xmlns:xlink="http://www.w3.org/1999/xlink" xmlns="http://www.w3.org/2000/svg"><clipPath id="p.0"><path d="m0 0l540.4803 0l0 540.0l-540.4803 0l0 -540.0z" clip-rule="nonzero"/></clipPath><g clip-path="url(#p.0)"><path fill="#000000" fill-opacity="0.0" d="m0 0l540.4803 0l0 540.0l-540.4803 0z" fill-rule="evenodd"/><path fill="#d4bbff" d="m4.7244093E-6 89.31231l105.11376 0l0 450.92957l-105.11376 0z" fill-rule="evenodd"/><path fill="#d4bbff" d="m423.36407 432.71484l0 107.505554l-423.31 0l0 -107.505554z" fill-rule="evenodd"/><path fill="#d4bbff" d="m143.99072 -0.24337454l105.11377 0l0 378.01166l-105.11377 0z" fill-rule="evenodd"/><path fill="#d4bbff" d="m513.4461 270.17673l0 107.50552l-369.45538 0l0 -107.50552z" fill-rule="evenodd"/><path fill="#d4bbff" d="m540.4693 377.70377l-105.11377 0l0 -363.04092l105.11377 0z" fill-rule="evenodd"/><path fill="#d4bbff" d="m150.13318 107.26216l0 -107.50554l390.3484 0l0 107.50554z" fill-rule="evenodd"/></g></svg>