<svg version="1.1" viewBox="0.0 0.0 864.0 106.55905511811024" fill="none" stroke="none" stroke-linecap="square" stroke-miterlimit="10" xmlns:xlink="http://www.w3.org/1999/xlink" xmlns="http://www.w3.org/2000/svg"><clipPath id="p.0"><path d="m0 0l864.0 0l0 106.55905l-864.0 0l0 -106.55905z" clip-rule="nonzero"/></clipPath><g clip-path="url(#p.0)"><path fill="#231c2f" d="m0 0l864.0 0l0 106.55905l-864.0 0z" fill-rule="evenodd"/><path fill="#3f384c" d="m79.62971 31.791153l0 0c0 -15.88199 12.874893 -28.756887 28.75689 -28.756887l647.55835 0c7.626831 0 14.941223 3.0297348 20.334229 8.422697c5.3929443 5.3929634 8.422668 12.70739 8.422668 20.33419l0 45.255463c0 15.881989 -12.874878 28.75689 -28.756897 28.75689l-647.55835 0c-15.881996 0 -28.75689 -12.874901 -28.75689 -28.75689z" fill-rule="evenodd"/><path fill="#3f384c" d="m48.613434 62.997005l773.86523 0l0 43.56339l-773.86523 0z" fill-rule="evenodd"/><path fill="#231c2f" d="m783.0799 29.323692l0 0c0 -16.193913 13.127747 -29.32167 29.321655 -29.32167l70.28705 0l0 0c7.7766113 0 15.23468 3.0892386 20.733582 8.588119c5.4988403 5.4988804 8.588135 12.956962 8.588135 20.733551l0 46.14428c0 16.193909 -13.127808 29.32167 -29.321716 29.32167l-70.28705 0c-16.193909 0 -29.321655 -13.127762 -29.321655 -29.32167z" fill-rule="evenodd"/><path fill="#231c2f" d="m-48.008926 29.323692l0 0c0 -16.193913 13.127762 -29.32167 29.321672 -29.32167l70.28704 0l0 0c7.7765923 0 15.234676 3.0892386 20.733555 8.588119c5.4988785 5.4988804 8.5881195 12.956962 8.5881195 20.733551l0 46.14428c0 16.193909 -13.127762 29.32167 -29.321674 29.32167l-70.28704 0c-16.19391 0 -29.321672 -13.127762 -29.321672 -29.32167z" fill-rule="evenodd"/></g></svg>